<?xml version="1.0" encoding="utf-8"?>
<!-- Generator: Adobe Illustrator 22.1.0, SVG Export Plug-In . SVG Version: 6.00 Build 0)  -->
<svg version="1.1" id="Layer_1" xmlns="http://www.w3.org/2000/svg" xmlns:xlink="http://www.w3.org/1999/xlink" x="0px" y="0px"
	 viewBox="0 0 50 50" style="enable-background:new 0 0 50 50;" xml:space="preserve">
<g style="enable-background:new    ;">
	<g>
		<path style="fill:#C9C3C1;" d="M17.1,30.2c-2.5,0-4.6,2.1-4.6,4.6s2.1,4.6,4.6,4.6s4.6-2.1,4.6-4.6S19.7,30.2,17.1,30.2z
			 M17.1,36.7c-1,0-1.9-0.8-1.9-1.9c0-1,0.8-1.9,1.9-1.9c1,0,1.9,0.8,1.9,1.9S18.2,36.7,17.1,36.7z"/>
		<path style="fill:#C9C3C1;" d="M33.6,30.2c-2.5,0-4.6,2.1-4.6,4.6s2.1,4.6,4.6,4.6s4.6-2.1,4.6-4.6C38.2,32.3,36.1,30.2,33.6,30.2
			z M33.6,36.7c-1,0-1.9-0.8-1.9-1.9c0-1,0.8-1.9,1.9-1.9c1,0,1.9,0.8,1.9,1.9C35.4,35.9,34.6,36.7,33.6,36.7z"/>
		<path style="fill:#C9C3C1;" d="M44.8,31.1h-0.6v-2c0.3-0.3,0.5-0.8,0.5-1.3c0-0.6-0.2-1.1-0.6-1.3l0,0c0-0.2-0.1-0.4-0.1-0.7
			c-0.1-0.4-0.2-0.8-0.4-1.1l-4.8-10.1c-0.2-0.4-0.5-0.7-0.9-1c-0.4-0.2-0.8-0.4-1.2-0.4h-1.8v-0.3c0-0.6-0.2-1.2-0.7-1.6
			c-0.4-0.4-1-0.7-1.6-0.7h-1.3c-0.6,0-1.2,0.2-1.6,0.7c-0.4,0.4-0.7,1-0.7,1.6v0.3H6v17.9H5.2c-0.5,0-0.9,0.4-0.9,0.9v1.9
			c0,0.5,0.4,0.9,0.9,0.9h0.9h3.2h2.6c0-2.9,2.3-5.2,5.2-5.2s5.2,2.3,5.2,5.2h5.9c0-2.9,2.3-5.2,5.2-5.2s5.2,2.3,5.2,5.2h2h3.5h0.6
			c0.5,0,0.9-0.4,0.9-0.9V32C45.7,31.5,45.3,31.1,44.8,31.1z M22.1,23.8h-3v3h-3.9v-3h-3v-3.9h3v-3h3.9v3h3V23.8z M31.1,25.3
			c-0.2,0-0.5-0.1-0.6-0.3c-0.2-0.2-0.3-0.4-0.3-0.6v-7.5c0-0.2,0.1-0.4,0.2-0.6c0.2-0.2,0.4-0.2,0.6-0.2h4.7c0.3,0,0.7,0.1,1,0.3
			c0.3,0.2,0.5,0.5,0.7,0.8l2.8,6.5c0.2,0.4,0.1,0.8-0.1,1.1c-0.2,0.3-0.6,0.5-1,0.5L31.1,25.3L31.1,25.3z"/>
	</g>
</g>
<path style="fill:#C9C3C1;enable-background:new    ;" d="M116.4,18.6l1.4-1.8l-1.4-1.1l-1.1,1.4l0,0l0,0l-1.1-1.4l-1.4,1.1l1.4,1.8
	L95.7,44.7h12.9c4.6-4,6.7-9.1,6.7-9.1h0.1c0,0,2,4.9,6.5,9.1h11.3L116.4,18.6z"/>
</svg>
