<?xml version="1.0" encoding="utf-8"?>
<!-- Generator: Adobe Illustrator 22.1.0, SVG Export Plug-In . SVG Version: 6.00 Build 0)  -->
<svg version="1.1" id="Layer_1" xmlns="http://www.w3.org/2000/svg" xmlns:xlink="http://www.w3.org/1999/xlink" x="0px" y="0px"
	 viewBox="0 0 50 50" style="enable-background:new 0 0 50 50;" xml:space="preserve">
<path style="fill:#C9C3C1;enable-background:new    ;" d="M17,6h-4c-3.9,0-7,3.1-7,7v4c0,3.9,3.1,7,7,7h4c3.9,0,7-3.1,7-7v-4
	C24,9.1,20.9,6,17,6 M22,13.8H8v2.5h14V13.8z M43.8,27.3h-4.7v14.1H27.3V32h-4.7v9.4H10.9V27.3H6.2l3.2-3.2C6.8,22.8,5,20.1,5,17v-4
	c0-4.4,3.6-8,8-8h4c3.1,0,5.8,1.8,7.1,4.5L25,8.6L43.8,27.3z"/>
</svg>
