<?xml version="1.0" encoding="utf-8"?>
<!-- Generator: Adobe Illustrator 22.1.0, SVG Export Plug-In . SVG Version: 6.00 Build 0)  -->
<svg version="1.1" id="Layer_1" xmlns="http://www.w3.org/2000/svg" xmlns:xlink="http://www.w3.org/1999/xlink" x="0px" y="0px"
	 viewBox="0 0 50 50" style="enable-background:new 0 0 50 50;" xml:space="preserve">
<path style="fill:#C9C3C1;" d="M38.3,43l-6.4-13.3L25.6,43h-4.7l8.7-18.2L21.1,7.1L25.8,7L32,19.9L38.1,7l4.6,0.1l-8.4,17.6L43,43
	H38.3z M12.1,13.1c1.7,0,3-1.4,3-3.1s-1.4-3.1-3-3.1C10.4,7,9,8.4,9,10.1S10.4,13.1,12.1,13.1z M18.3,26.6c0.1,0.6-0.3,1.1-0.9,1.1
	h-0.1c-0.5,0-1-0.4-1-0.9l-0.8-8.3L15.2,25l0.6,16.7c0,0.7-0.5,1.2-1.1,1.3h-0.1c-0.6,0-1.2-0.5-1.2-1.1L12,28.1l-1.4,13.8
	c0,0.6-0.6,1.1-1.2,1.1H9.3c-0.7,0-1.2-0.6-1.1-1.3L8.9,25l-0.2-6.5l-0.8,8.3c-0.1,0.5-0.5,0.9-1,0.9H6.8c-0.6-0.1-1-0.6-0.9-1.1
	c0,0,0.8-9.6,1.2-10.3c0.7-1.5,1.9-2.5,4.8-2.5h0.3h0.3c2.8,0,4,0.9,4.8,2.5C17.5,17.1,18.3,26.6,18.3,26.6z"/>
</svg>
