<?xml version="1.0" encoding="utf-8"?>
<!-- Generator: Adobe Illustrator 22.1.0, SVG Export Plug-In . SVG Version: 6.00 Build 0)  -->
<svg version="1.1" id="Layer_1" xmlns="http://www.w3.org/2000/svg" xmlns:xlink="http://www.w3.org/1999/xlink" x="0px" y="0px"
	 viewBox="0 0 50 50" style="enable-background:new 0 0 50 50;" xml:space="preserve">
<g>
	<path style="fill:none;" d="M50,46c0,2.2-1.8,4-4,4H4c-2.2,0-4-1.8-4-4V4c0-2.2,1.8-4,4-4h42c2.2,0,4,1.8,4,4V46z"/>
</g>
<path style="fill:#C9C3C1;enable-background:new    ;" d="M21.1,29.6l-1.6,3c-0.1,0.2-0.3,0.5-0.8,0.5c-0.7,0-1.8-0.4-2.5-0.7
	L16,32.6l-1.1-0.5l0.1-0.3c-1-0.5-2.2-1.2-2.4-1.8l-0.1-0.3l0.1-0.2l1.2-3.2c-1.3,0.8-2.4,2.5-3.7,5.3l-1.6,3.3
	c-0.1,0.3-0.3,0.6-0.4,0.9l9.3,4.3c0.1-0.3,0.3-0.6,0.4-0.9l1.5-3.3C20.7,33,21.3,31.1,21.1,29.6z M18.1,36.8l-1.2,2.5l-7.8-3.6
	l1.2-2.5c0.3-0.7,1.2-1.1,2.3-1.1c0.8,0,1.7,0.2,2.7,0.6C17.4,33.7,18.6,35.5,18.1,36.8z M17.5,35.7c0.1,0.3,0.1,0.6,0,0.8l-0.9,1.9
	l-6.6-3l0.9-1.9c0.2-0.4,0.8-0.7,1.7-0.7c0.7,0,1.6,0.2,2.4,0.6C16.2,33.9,17.1,34.8,17.5,35.7z M19.2,26.5c0.2,0.1,0.5,0.2,0.7,0.2
	c0,0.2,0.1,0.5,0,0.7c0.7,0.4,1.1,0.8,1,0.9l-2.1,3.9c-0.1,0.3-1.5-0.1-3-0.8c-1.5-0.7-2.7-1.5-2.6-1.8l1.6-4.2
	c0.1-0.2,0.6-0.1,1.4,0.2c0.5-0.5,1.1-0.7,1.7-0.7c0,0.2,0.1,0.4,0.2,0.7c-0.4-0.1-0.9,0.1-1.2,0.3c0.4,0.1,0.8,0.3,1.2,0.5
	c0.4,0.2,0.8,0.4,1.1,0.6C19.3,26.8,19.3,26.6,19.2,26.5L19.2,26.5z M35.2,27.1c-0.1,0.5,0,1.5,0.2,1.9l5.5,12
	c0.3,0.6,0.6,1.3,0.1,2.1c-0.3,0.4-0.8,0.7-1.3,0.7l0,0c-0.9,0-1.3-0.7-1.7-1.3l-6.8-11.4l-1.8,3.7c-0.4,0.9-1.3,2.1-1.9,2.8l-3.7,4
	c-0.5,0.5-0.9,0.9-1.6,0.9c-0.6,0-1.1-0.3-1.4-0.9c-0.4-0.9,0.1-1.6,0.6-2.1l3.7-4.5c0.4-0.5,0.9-1.5,1.1-2.1l1.4-4.7
	c0.2-0.7,0.4-1.9,0.5-2.7l0.6-7.3c-3,1-5.8,4.8-6.8,6.5C21.3,25.4,21,26,20.1,26l0,0c-0.5,0-1-0.3-1.3-0.8c-0.5-0.8-0.1-1.4,0.3-2.1
	c0.2-0.4,5.7-10,13.1-9.5c3.2,0.3,4.2,2.7,4.9,4.2c0.2,0.4,0.3,0.7,0.5,1l4.2,7.6c0.4,0.7,0.2,1.7-0.6,2.1c-0.7,0.4-1.6,0.2-2.1-0.5
	L36,23L35.2,27.1z M37,9.2c0.3,1.9-1,3.7-2.9,4.1c-1.9,0.3-3.7-1-4.1-2.9c-0.3-1.9,1-3.7,2.9-4.1C34.9,6,36.7,7.3,37,9.2z"/>
</svg>
