<?xml version="1.0" encoding="utf-8"?>
<!-- Generator: Adobe Illustrator 22.1.0, SVG Export Plug-In . SVG Version: 6.00 Build 0)  -->
<svg version="1.1" id="Layer_1" xmlns="http://www.w3.org/2000/svg" xmlns:xlink="http://www.w3.org/1999/xlink" x="0px" y="0px"
	 viewBox="0 0 50 50" style="enable-background:new 0 0 50 50;" xml:space="preserve">
<path style="fill:#C9C3C1;enable-background:new    ;" d="M23.7,9.2c0.3,1.9-1,3.7-2.9,4.1c-1.9,0.3-3.8-1-4.1-2.9
	c-0.3-1.9,1-3.7,2.9-4.1C21.6,6,23.4,7.3,23.7,9.2z M22.6,23.2l3.1,5c0.4,0.7,1.4,0.9,2.1,0.5s1-1.3,0.6-2.1l-0.8-1.4
	c-0.7-1.2-1.4-2.5-2-3.7L24.1,19c-0.2-0.3-0.3-0.6-0.5-1c-0.9-1.8-2.2-4.6-5.1-4.3c-2.5,0.2-5.1,1.4-7.6,3.5c-3,2.3-5.1,5.7-5.1,5.9
	c-0.1,0.2-0.2,0.3-0.3,0.4l0,0l0,0c-0.3,0.5-0.4,1-0.1,1.6S6.2,26,6.8,26c0.7,0,1-0.3,1.3-0.8l0,0l0,0c0.1-0.1,0.2-0.3,0.3-0.4
	c0,0,1.8-2.8,4.5-5.1c0.8-0.7,1.6-1.1,2.4-1.3l-0.6,7.3c-0.1,0.7-0.3,2-0.5,2.7L12.8,33c-0.2,0.6-0.7,1.6-1.1,2.1L8,39.6
	c-0.5,0.6-1,1.2-0.6,2.1c0.3,0.5,0.8,0.9,1.4,0.9c0.7,0,1.1-0.4,1.6-0.9l3.7-4c0.7-0.7,1.5-1.9,1.9-2.8l1.8-3.7l6.8,11.4
	c0.3,0.6,0.8,1.3,1.7,1.3l0,0c0.5,0,1-0.3,1.3-0.7c0.5-0.7,0.2-1.4-0.1-2.1L22,29.2c-0.2-0.5-0.3-1.4-0.2-1.9L22.6,23.2z M28.3,35.6
	h8.2V38l8.2-4.7l-8.2-4.7V31h-8.2V35.6z"/>
</svg>
