<?xml version="1.0" encoding="utf-8"?>
<!-- Generator: Adobe Illustrator 22.1.0, SVG Export Plug-In . SVG Version: 6.00 Build 0)  -->
<svg version="1.1" id="Layer_1" xmlns="http://www.w3.org/2000/svg" xmlns:xlink="http://www.w3.org/1999/xlink" x="0px" y="0px"
	 viewBox="0 0 50 50" style="enable-background:new 0 0 50 50;" xml:space="preserve">
<path style="fill:#C9C3C1;" d="M38.7,31.6l-8.3,0c-3.3-3.1-4.7-6.7-4.7-6.7h-0.1c0,0-1.5,3.7-4.9,6.7h-9.4l13.4-19.1l-1-1.3l1-0.8
	l0.8,1v0l0,0l0.8-1l1,0.8l-1,1.3L38.7,31.6z M6.3,39.5h5v-4.2h-5V39.5z M14.4,39.5h5.1v-4.2h-5.1V39.5z M22.5,39.5h5.1v-4.2h-5.1
	V39.5z M30.6,39.5h5.1v-4.2h-5.1V39.5z M38.6,39.5h5.1v-4.2h-5.1V39.5z"/>
</svg>
