<?xml version="1.0" encoding="utf-8"?>
<!-- Generator: Adobe Illustrator 22.1.0, SVG Export Plug-In . SVG Version: 6.00 Build 0)  -->
<svg version="1.1" id="Layer_1" xmlns="http://www.w3.org/2000/svg" xmlns:xlink="http://www.w3.org/1999/xlink" x="0px" y="0px"
	 viewBox="0 0 50 50" style="enable-background:new 0 0 50 50;" xml:space="preserve">
<style type="text/css">
	.st0{fill:none;}
	.st1{opacity:0.48;enable-background:new    ;}
</style>
<g>
	<path class="st0" d="M50,46c0,2.2-1.8,4-4,4H4c-2.2,0-4-1.8-4-4V4c0-2.2,1.8-4,4-4h42c2.2,0,4,1.8,4,4V46z"/>
</g>
<g class="st1">
	<path class="st0" d="M50,46c0,2.2-1.8,4-4,4H4c-2.2,0-4-1.8-4-4V4c0-2.2,1.8-4,4-4h42c2.2,0,4,1.8,4,4V46z"/>
</g>
<path class="st1" d="M26.9,13.4l1.4-1.8l-1.4-1.1l-1.1,1.4l0,0v0l-1.1-1.4l-1.4,1.1l1.4,1.8L6.2,39.5h12.9c4.6-4,6.7-9.1,6.7-9.1
	h0.1c0,0,2,4.9,6.5,9.1l11.3,0L26.9,13.4z"/>
</svg>
