<?xml version="1.0" encoding="utf-8"?>
<!-- Generator: Adobe Illustrator 22.1.0, SVG Export Plug-In . SVG Version: 6.00 Build 0)  -->
<svg version="1.1" id="Layer_1" xmlns="http://www.w3.org/2000/svg" xmlns:xlink="http://www.w3.org/1999/xlink" x="0px" y="0px"
	 viewBox="0 0 50 50" style="enable-background:new 0 0 50 50;" xml:space="preserve">
<g>
	<path style="fill:none;" d="M50,46c0,2.2-1.8,4-4,4H4c-2.2,0-4-1.8-4-4V4c0-2.2,1.8-4,4-4h42c2.2,0,4,1.8,4,4V46z"/>
</g>
<path style="fill:#C9C3C1;enable-background:new    ;" d="M43.6,31.6c-0.2-0.2-0.6-0.2-0.8,0l-2.1,2.1h-5.6v-2.5h4.7
	c0.5,0,0.9,0,1.3-0.1c0.4-0.1,0.8-0.3,1.1-0.7c0.2-0.3,0.4-0.7,0.4-1.2c0-0.4-0.1-0.8-0.3-1.4l-1.8-4.3c-0.6-1.3-1.3-2.2-2.3-2.7
	c-0.9-0.5-1.9-0.8-2.9-0.8h-7.2v-3.4h2.1c0.1,0.2,0.3,0.3,0.4,0.4c0.2,0,0.4,0,0.5,0h10.1c0.3,0,0.6-0.1,0.7-0.3
	c0.2-0.2,0.3-0.4,0.3-0.6c0-0.2-0.1-0.4-0.2-0.6c-0.2-0.2-0.4-0.3-0.8-0.3h-9.7c-0.5,0-0.7,0.1-0.9,0.2c-0.1,0.1-0.3,0.2-0.3,0.4
	h-5.7c-0.1-0.1-0.2-0.2-0.3-0.3c-0.1-0.1-0.3-0.2-0.6-0.2H13.4c-0.2,0-0.4,0.1-0.6,0.2c-0.2,0.1-0.3,0.4-0.3,0.7s0.1,0.6,0.3,0.7
	c0.2,0.2,0.4,0.2,0.5,0.2h10.3c0.1,0,0.2,0,0.4-0.1c0.2-0.1,0.3-0.2,0.5-0.5h2.2v3.3h-13c-0.3-0.7-0.8-1.3-1.4-1.8
	c-0.6-0.5-1.4-0.7-2.2-0.7c-1.1,0-2,0.4-2.8,1.1c-0.8,0.8-1.1,1.7-1.1,2.8c0,1.1,0.4,2,1.1,2.7C8.1,24.6,9,25,10.1,25
	c1.2,0,2.2-0.5,2.9-1.4l8.4,3.2l1.1,2.8c0.2,0.3,0.4,0.6,0.6,1c0.3,0.3,0.8,0.5,1.7,0.5h3.7v2.5h-6.1c-0.3,0-0.6,0.3-0.6,0.6
	s0.3,0.6,0.6,0.6h18.4c0.2,0,0.3-0.1,0.4-0.2l2.2-2.2C43.8,32.2,43.8,31.8,43.6,31.6z M36.7,21.6c0.5,0.2,1,0.4,1.4,0.8
	s0.8,0.9,1.1,1.6c0.1,0.2,0.2,0.5,0.3,0.8s0.2,0.6,0.4,0.9h-3.2V21.6z M9.4,22.3c0.3,0.2,0.6,0.4,1,0.5l1.2,0.5
	c-0.5,0.3-1,0.5-1.5,0.5c-0.7,0-1.3-0.2-1.8-0.7S7.6,22,7.6,21.3c0-0.7,0.2-1.3,0.7-1.8s1.1-0.7,1.8-0.7c0.9,0,1.5,0.3,2,1h-1.7
	c-0.4,0-0.8,0.1-1,0.4c-0.3,0.2-0.4,0.6-0.4,1C9,21.8,9.1,22.1,9.4,22.3z M32.4,21.4h2.8v4.3h-2.8V21.4z M28.1,21.5h2.7v4.3h-2.7
	V21.5z M29.6,31.1h4.5v2.5h-4.5C29.6,33.6,29.6,31.1,29.6,31.1z"/>
</svg>
