<?xml version="1.0" encoding="utf-8"?>
<!-- Generator: Adobe Illustrator 22.1.0, SVG Export Plug-In . SVG Version: 6.00 Build 0)  -->
<svg version="1.1" id="Layer_1" xmlns="http://www.w3.org/2000/svg" xmlns:xlink="http://www.w3.org/1999/xlink" x="0px" y="0px"
	 viewBox="0 0 50 50" style="enable-background:new 0 0 50 50;" xml:space="preserve">
<g>
	<path style="fill:#C9C3C1;" d="M25,6.3L21.5,8c1,0.7,1.8,1.6,2.4,2.7l1.1-0.6l17.2,8.5l1.5-3.1L25,6.3z"/>
	<polygon style="fill:#C9C3C1;" points="6.8,15.3 6.2,15.6 6.8,16.8 	"/>
	<path style="fill:#C9C3C1;" d="M29.9,28.5H20v-4.4c-0.8,0.3-1.6,0.4-2.4,0.4H15v19.2h5.1V32.8H30v10.9h5v-25h-5.1V28.5z"/>
</g>
<path style="fill:#C9C3C1;" d="M17.5,7.2c3.6,0,6.6,2.9,6.6,6.6v3.7c0,3.6-2.9,6.6-6.6,6.6h-3.8c-3.6,0-6.6-2.9-6.6-6.6v-3.7
	c0-3.6,2.9-6.6,6.6-6.6L17.5,7.2 M17.5,6.3h-3.8c-4.1,0-7.5,3.4-7.5,7.5v3.7c0,4.1,3.4,7.5,7.5,7.5h3.8c4.1,0,7.5-3.4,7.5-7.5v-3.7
	C25,9.6,21.6,6.3,17.5,6.3L17.5,6.3z"/>
<rect x="9.1" y="15.2" transform="matrix(0.7071 -0.7071 0.7071 0.7071 -6.4825 15.6499)" style="fill:#C9C3C1;" width="13.2" height="1"/>
<rect x="15.1" y="9.1" transform="matrix(0.7071 -0.7071 0.7071 0.7071 -6.4825 15.6499)" style="fill:#C9C3C1;" width="1" height="13.2"/>
</svg>
