<?xml version="1.0" encoding="utf-8"?>
<!-- Generator: Adobe Illustrator 22.1.0, SVG Export Plug-In . SVG Version: 6.00 Build 0)  -->
<svg version="1.1" id="Layer_1" xmlns="http://www.w3.org/2000/svg" xmlns:xlink="http://www.w3.org/1999/xlink" x="0px" y="0px"
	 viewBox="0 0 50 50" style="enable-background:new 0 0 50 50;" xml:space="preserve">
<style type="text/css">
	.st0{fill:none;}
	.st1{opacity:0.48;}
</style>
<g>
	<path class="st0" d="M50,46c0,2.2-1.8,4-4,4H4c-2.2,0-4-1.8-4-4V4c0-2.2,1.8-4,4-4h42c2.2,0,4,1.8,4,4V46z"/>
</g>
<path class="st1" d="M36.3,14.1h-6.4c-0.4,0-0.6,0.3-0.6,0.6v0.5c0,0.4,0.3,0.6,0.6,0.6h0.2c0,0,0,0,0,0c0.1,0.2,0.2,0.3,0.4,0.4
	c0,0.3,0,0.8,0,1.3l-5.6,0l-6.5-3.8c-1.1-0.6-2.2-0.7-3.3-0.4c-1.2,0.4-2.1,1.1-2.7,2.1c-0.3,0.6-0.5,1.3-0.4,1.9c0,0.6,0,11.9,0,12
	c0,2.1,1.6,3.7,3.7,3.8l0.1,0c0,0,0.1,0,0.1,0c0,0,0.1,0,0.1,0h8.5v10.6c0,0.6,0.2,1.2,0.7,1.7c0.5,0.5,1.1,0.7,1.8,0.7
	c0.6,0,1.2-0.2,1.7-0.7c0.5-0.5,0.8-1,0.8-1.7c0,0,0-13.3,0-13.4v0h0c-0.1-0.5-0.2-1-0.6-1.4c-0.5-0.5-1-0.8-1.7-0.8h-6.5l0-8.5
	c0,0,3.9,2,4,2c0.1,0,3.8,0,6-0.1c0,2.9,0,6.1,0,7.4c0,2.7,0.9,5.6,0.9,5.6c0.4,1.3,0.4,1.8,0.4,1.8c0,0.1,0,0.1,0,0.1
	c0,0,0,6.6,0,8c0,1.2,0.5,1.6,0.8,1.6h0.9c0.3,0,0.8-0.4,0.8-1.6c0-1.4,0-8.1,0-8.1l-0.2,0l0.2,0c0,0,0-0.5,0.4-1.8
	c0,0,0.9-2.9,0.9-5.6c0-2.2,0-10.4,0-12.7c0.1-0.1,0.3-0.2,0.3-0.4c0,0,0,0,0,0c0,0,0,0,0,0h0.2c0.4,0,0.6-0.3,0.6-0.6v-0.5
	C36.9,14.4,36.7,14.1,36.3,14.1z M34.5,29.1c0,2.6-0.9,5.5-0.9,5.5l0.2,0.1l-0.2,0c-0.1,0.3-0.3,0.7-0.3,0.7
	c-0.1,0.1-0.2,0.1-0.3,0.1c-0.1,0-0.1,0-0.2-0.1c0,0-0.2-0.4-0.3-0.7c0,0-0.9-2.9-0.9-5.5c0-0.7,0-1.8,0-3.2c0.1,0,0.1,0,0.2,0h2.4
	c0.1,0,0.1,0,0.2,0C34.5,27.3,34.5,28.5,34.5,29.1z M34.5,24.2c-0.1,0-0.1,0-0.2,0h-2.4c-0.1,0-0.1,0-0.2,0c0-0.8,0-1.7,0-2.5
	c0.1,0,0.3,0,0.3,0c0.5-0.1,1-0.4,1.3-1c0.3-0.5,0.3-1,0.1-1.6c-0.3-0.6-0.6-1-1-1.2c-0.2-0.1-0.4-0.2-0.7-0.2c0-0.5,0-0.9,0-1.2
	h2.8C34.5,17.9,34.5,21.3,34.5,24.2z M12.9,8.9c-0.3-1-0.2-2,0.3-3.1c0.5-1,1.3-1.6,2.3-1.9c1-0.3,2.1-0.2,3,0.3
	c1,0.5,1.7,1.3,2,2.4c0.3,1.1,0.2,2.1-0.3,3c-0.5,1-1.3,1.7-2.3,2c-1,0.3-2.1,0.2-3-0.3C13.8,10.7,13.2,10,12.9,8.9z"/>
</svg>
