<?xml version="1.0" encoding="utf-8"?>
<!-- Generator: Adobe Illustrator 22.1.0, SVG Export Plug-In . SVG Version: 6.00 Build 0)  -->
<svg version="1.1" id="Layer_1" xmlns="http://www.w3.org/2000/svg" xmlns:xlink="http://www.w3.org/1999/xlink" x="0px" y="0px"
	 viewBox="0 0 50 50" style="enable-background:new 0 0 50 50;" xml:space="preserve">
<style type="text/css">
	.st0{fill:none;}
	.st1{opacity:0.48;}
</style>
<g>
	<path class="st0" d="M50,46.1c0,2.2-1.8,4-4,4H4c-2.2,0-4-1.8-4-4v-42c0-2.2,1.8-4,4-4h42c2.2,0,4,1.8,4,4V46.1z"/>
</g>
<path class="st1" d="M28.5,36.5h6.3v6.6h-6.3v-5.7V36.5z M40.1,9.9c-2-1.9-4.7-2.8-7.9-2.8c-3.5,0-6.4,1.1-8.4,3.3
	c-2.1,2.2-3.1,5.1-3.1,8.6v0.9h5.8l0-0.9c0.1-1.9,0.4-3.3,0.9-4.2c0.9-1.6,2.2-2.4,4.6-2.4c2,0,3.2,0.5,3.9,1.3c0.8,1,1.1,2,1.2,3.3
	c0,0.9-0.3,1.7-0.8,2.6c-0.3,0.5-0.7,1-1.2,1.5l-1.9,1.8c-1.8,1.8-3.1,3.4-3.7,4.9c-0.6,1.5-0.8,3.4-0.8,5.6v0.9h5.9v-0.9
	c0-1.9,0.2-3.2,0.6-4c0.4-0.8,1.3-2,2.7-3.3c2.1-2,3.5-3.5,4.2-4.6c0.8-1.2,1.1-2.7,1.1-4.4C43.2,14.3,42.2,11.8,40.1,9.9z
	 M11.9,7.1c-1.7,0-3.1,1.4-3.1,3.1s1.4,3.1,3.1,3.1c1.7,0,3-1.4,3-3.1S13.6,7.1,11.9,7.1z M17,16.4c-0.7-1.5-1.9-2.5-4.8-2.5h-0.3
	h-0.3c-2.8,0-4,0.9-4.8,2.5c-0.4,0.8-1.2,10.3-1.2,10.3c-0.1,0.6,0.3,1.1,0.9,1.1c0,0,0.1,0,0.1,0c0.5,0,1-0.4,1-0.9l0.8-8.3
	l0.2,6.5L8.1,41.8c0,0.7,0.5,1.2,1.1,1.3c0,0,0.1,0,0.1,0c0.6,0,1.2-0.5,1.2-1.1l1.4-13.8L13.3,42c0,0.6,0.6,1.1,1.2,1.1
	c0,0,0.1,0,0.1,0c0.7,0,1.2-0.6,1.1-1.3l-0.6-16.7l0.2-6.5l0.8,8.3c0.1,0.5,0.5,0.9,1,0.9c0,0,0.1,0,0.1,0c0.6-0.1,1-0.6,0.9-1.1
	C18.1,26.7,17.3,17.2,17,16.4z"/>
</svg>
