<?xml version="1.0" encoding="utf-8"?>
<!-- Generator: Adobe Illustrator 22.1.0, SVG Export Plug-In . SVG Version: 6.00 Build 0)  -->
<svg version="1.1" id="Layer_1" xmlns="http://www.w3.org/2000/svg" xmlns:xlink="http://www.w3.org/1999/xlink" x="0px" y="0px"
	 viewBox="0 0 50 50" style="enable-background:new 0 0 50 50;" xml:space="preserve">
<path style="fill:#C9C3C1;enable-background:new    ;" d="M24.4,6.2c-1.8,0-3.2,1.4-3.2,3.2s1.4,3.2,3.2,3.2c1.8,0,3.2-1.4,3.2-3.2
	C27.6,7.7,26.2,6.2,24.4,6.2z M29.7,15.9c-0.8-1.6-2-2.6-5-2.6h-0.3h-0.3c-3,0-4.2,1-5,2.6c-0.4,0.8-1.2,10.8-1.2,10.8
	c-0.1,0.6,0.4,1.1,1,1.2H19c0.5,0,1-0.4,1.1-1l0.8-8.7l0.2,6.7l-0.6,17.4c0,0.7,0.5,1.3,1.2,1.3h0.1c0.7,0,1.2-0.5,1.3-1.2l1.4-14.3
	l1.4,14.3c0,0.7,0.6,1.2,1.3,1.2h0.1c0.7,0,1.2-0.6,1.2-1.3L27.7,25l0.2-6.7l0.8,8.7c0.1,0.5,0.5,1,1.1,1h0.1c0.6-0.1,1-0.6,1-1.2
	C30.9,26.7,30.1,16.7,29.7,15.9z"/>
</svg>
