<?xml version="1.0" encoding="utf-8"?>
<!-- Generator: Adobe Illustrator 22.1.0, SVG Export Plug-In . SVG Version: 6.00 Build 0)  -->
<svg version="1.1" id="Layer_1" xmlns="http://www.w3.org/2000/svg" xmlns:xlink="http://www.w3.org/1999/xlink" x="0px" y="0px"
	 viewBox="0 0 50 50" style="enable-background:new 0 0 50 50;" xml:space="preserve">
<path style="fill:#C9C3C1;enable-background:new    ;" d="M37.6,19.7l6.1-3.4l-1.3-0.7L31.2,9.5L25,12.9l-6.3-3.4L6.2,16.2l1.3,0.7
	l4.9,2.7h-0.1l0,0l0,0l-6,3.3l6,3.2v8.2L25,40.6l12.6-6.3v-8.1l6.1-3.3L37.6,19.7z M31.2,11.4l9,4.9l-4.4,2.4l-9.1-4.9L31.2,11.4z
	 M9.7,16.2l9-4.9l4.5,2.4l-9.1,4.9L9.7,16.2z M9.9,22.9l4.5-2.4l9.1,4.9L19,27.8L9.9,22.9z M14.1,33.3v-6.2l4.9,2.7l5.1-2.8v11.4
	L14.1,33.3z M35.9,33.3l-10.1,5V26.9l5.2,2.9l4.9-2.6V33.3z M40.1,22.9L31,27.8l-4.4-2.4l9-4.9L40.1,22.9z"/>
</svg>
