<?xml version="1.0" encoding="utf-8"?>
<!-- Generator: Adobe Illustrator 22.1.0, SVG Export Plug-In . SVG Version: 6.00 Build 0)  -->
<svg version="1.1" id="Layer_1" xmlns="http://www.w3.org/2000/svg" xmlns:xlink="http://www.w3.org/1999/xlink" x="0px" y="0px"
	 viewBox="0 0 50 50" style="enable-background:new 0 0 50 50;" xml:space="preserve">
<g style="enable-background:new    ;">
	<path style="fill:#C9C3C1;" d="M29.3,5.3c-1.3,0-1.3-1.8,0-1.8c7.8,0,14,6.1,14,13.6c0,1.3-1.9,1.3-1.9,0
		C41.4,10.6,36,5.3,29.3,5.3z"/>
	<path style="fill:#C9C3C1;" d="M29.9,10.3c-1.3,0-1.3-1.9,0-1.9c4.6,0,8.5,3.7,8.5,8.1c0,1.3-1.9,1.3-1.9,0
		C36.4,13,33.6,10.3,29.9,10.3z"/>
	<path style="fill:#C9C3C1;" d="M27.2,12.8h-5.7V4c0-0.5-0.3-0.8-0.8-0.8h-1.1C19.3,3.2,19,3.5,19,4v9.4c-1.3,0.8-2.2,2.2-2.2,3.7
		v25.4c0,2.4,2.1,4.3,4.5,4.3h6.1c2.6,0,4.5-1.9,4.5-4.3V17.1C31.7,14.7,29.7,12.8,27.2,12.8z M21.3,37.2c0,0.2-0.2,0.2-0.3,0.2
		h-1.9c-0.2,0-0.2,0-0.2-0.2v-1.9c0-0.2,0-0.3,0.2-0.3H21c0.2,0,0.3,0.2,0.3,0.3V37.2z M21.3,33.8c0,0.2-0.2,0.3-0.3,0.3h-1.9
		c-0.2,0-0.2-0.2-0.2-0.3V32c0-0.2,0-0.3,0.2-0.3H21c0.2,0,0.3,0.2,0.3,0.3V33.8z M21.3,30.7c0,0.2-0.2,0.2-0.3,0.2h-1.9
		c-0.2,0-0.2,0-0.2-0.2v-1.9c0-0.2,0-0.2,0.2-0.2H21c0.2,0,0.3,0,0.3,0.2V30.7z M25.6,37.2c0,0.2-0.2,0.2-0.3,0.2h-1.9
		c-0.2,0-0.3,0-0.3-0.2v-1.9c0-0.2,0.2-0.3,0.3-0.3h1.9c0.2,0,0.3,0.2,0.3,0.3V37.2z M25.6,33.8c0,0.2-0.2,0.3-0.3,0.3h-1.9
		c-0.2,0-0.3-0.2-0.3-0.3V32c0-0.2,0.2-0.3,0.3-0.3h1.9c0.2,0,0.3,0.2,0.3,0.3V33.8z M25.6,30.7c0,0.2-0.2,0.2-0.3,0.2h-1.9
		c-0.2,0-0.3,0-0.3-0.2v-1.9c0-0.2,0.2-0.2,0.3-0.2h1.9c0.2,0,0.3,0,0.3,0.2V30.7z M29.6,37.2c0,0.2-0.2,0.2-0.3,0.2h-1.8
		c-0.2,0-0.3,0-0.3-0.2v-1.9c0-0.2,0.2-0.3,0.3-0.3h1.8c0.2,0,0.3,0.2,0.3,0.3V37.2z M29.6,33.8c0,0.2-0.2,0.3-0.3,0.3h-1.8
		c-0.2,0-0.3-0.2-0.3-0.3V32c0-0.2,0.2-0.3,0.3-0.3h1.8c0.2,0,0.3,0.2,0.3,0.3V33.8z M29.6,30.7c0,0.2-0.2,0.2-0.3,0.2h-1.8
		c-0.2,0-0.3,0-0.3-0.2v-1.9c0-0.2,0.2-0.2,0.3-0.2h1.8c0.2,0,0.3,0,0.3,0.2V30.7z M29.7,25.7c0,0.8-0.6,1.3-1.3,1.3H20
		c-0.6,0-1.3-0.5-1.3-1.3v-8.1c0-0.6,0.6-1.3,1.3-1.3h8.5c0.6,0,1.3,0.6,1.3,1.3L29.7,25.7L29.7,25.7z"/>
</g>
</svg>
