<?xml version="1.0" encoding="utf-8"?>
<!-- Generator: Adobe Illustrator 22.1.0, SVG Export Plug-In . SVG Version: 6.00 Build 0)  -->
<svg version="1.1" id="Layer_1" xmlns="http://www.w3.org/2000/svg" xmlns:xlink="http://www.w3.org/1999/xlink" x="0px" y="0px"
	 viewBox="0 0 50 50" style="enable-background:new 0 0 50 50;" xml:space="preserve">
<style type="text/css">
	.st0{fill:#C9C3C1;}
</style>
<path class="st0" d="M39.4,36.3v1.1c0,3.5-2.9,6.4-6.4,6.4H17c-3.5,0-6.4-2.9-6.4-6.4v-1.1c1.3,2.2,3.7,3.7,6.4,3.7h16
	C35.7,39.9,38.1,38.4,39.4,36.3z M33,23.7H17c-3.5,0-6.4,2.9-6.4,6.4v2.5c0,3.5,2.9,6.4,6.4,6.4h16c3.5,0,6.4-2.9,6.4-6.4V30
	C39.4,26.5,36.5,23.7,33,23.7 M33.3,8.6c-2.4,0-4.4,2-4.4,4.4c0,2.4,2,4.4,4.4,4.4c2.4,0,4.4-2,4.4-4.4C37.7,10.5,35.8,8.6,33.3,8.6
	z M26.6,9.5c0-1.8-1.5-3.2-3.2-3.2c-1.8,0-3.2,1.5-3.2,3.2c0,0.7,0.2,1.4,0.7,1.9c0.4-0.2,0.9-0.3,1.4-0.3c1.1,0,2,0.5,2.6,1.3
	C25.9,11.9,26.6,10.8,26.6,9.5z M18.9,14.4c0-0.1,0-0.1,0-0.2c-0.3-0.1-0.5-0.1-0.8-0.1c-2,0-3.6,1.6-3.6,3.6c0,2,1.6,3.6,3.6,3.6
	c2,0,3.6-1.6,3.6-3.6c0,0,0,0,0,0C20.2,17.4,18.9,16,18.9,14.4z M22.2,11.8c-1.4,0-2.5,1.1-2.5,2.5c0,1.4,1.1,2.5,2.5,2.5
	c1.4,0,2.6-1.1,2.6-2.5C24.8,12.9,23.6,11.8,22.2,11.8z"/>
</svg>
