<?xml version="1.0" encoding="utf-8"?>
<!-- Generator: Adobe Illustrator 22.1.0, SVG Export Plug-In . SVG Version: 6.00 Build 0)  -->
<svg version="1.1" id="Layer_1" xmlns="http://www.w3.org/2000/svg" xmlns:xlink="http://www.w3.org/1999/xlink" x="0px" y="0px"
	 viewBox="0 0 50 50" style="enable-background:new 0 0 50 50;" xml:space="preserve">
<style type="text/css">
	.st0{fill:#C9C3C1;}
</style>
<path class="st0" d="M38.3,14.5c1.4-1.1,2-2.8,1.8-4.5c-0.3-2-1.8-3.6-3.9-4c-2.6-0.5-5.1,1.2-5.6,3.8c-0.3,1.8,0.3,3.6,1.7,4.7
	c-2.1,0.1-4.1,1.3-5.2,3.1l-2.3,1.3l-1.1-2c-1-1.7-2.8-2.8-4.8-2.8h-0.3c1.4-1.1,2.1-2.8,1.8-4.5c-0.3-2-1.8-3.7-3.9-4
	c-2.6-0.5-5.2,1.2-5.7,3.8c-0.3,1.8,0.3,3.6,1.8,4.7h-0.8c-3.1,0-5.7,2.5-5.7,5.7v8.7c0,1.6,1.3,2.9,2.9,2.9c0.3,0,0.7-0.1,1-0.2V41
	c0,1.8,1.5,3.3,3.3,3.3c0.9,0,1.7-0.3,2.3-1c1.3,1.3,3.4,1.3,4.7,0c0.6-0.6,1-1.5,1-2.3V24.5c1.1,1.3,3,1.7,4.4,0.8l0.3-0.2v3.2
	c0,1.6,1.3,2.8,2.8,2.8c0.3,0,0.6,0,0.9-0.1v10c0,1.8,1.4,3.3,3.3,3.3c0.9,0,1.7-0.3,2.3-0.9c1.3,1.3,3.4,1.3,4.6,0
	c0.6-0.6,0.9-1.4,0.9-2.3v-10c1.5,0.5,3.1-0.3,3.6-1.8c0.1-0.3,0.1-0.6,0.1-0.9v-7C44.6,17.7,41.8,14.7,38.3,14.5z M24.7,23.6
	c-0.6,0.4-1.4,0.2-1.9-0.3L21.1,21c-0.3-0.4-0.9-0.5-1.4-0.2c-0.2,0.2-0.4,0.5-0.4,0.8V41c0,0.7-0.5,1.4-1.3,1.4
	c-0.7,0-1.4-0.5-1.4-1.3c0,0,0-0.1,0-0.1v-9.3c0-0.5-0.4-1-1-1s-1,0.4-1,1V41c0,0.7-0.5,1.4-1.3,1.4c-0.7,0-1.4-0.5-1.4-1.3
	c0,0,0-0.1,0-0.1V21.7c0-0.5-0.4-1-1-1l0,0c-0.5,0-1,0.4-1,1v6.9l0,0c0,0.5-0.4,1-1,1c-0.5,0-1-0.4-1-1v-8.7c0-2.1,1.7-3.7,3.7-3.7
	h1.2c1,0,1.8-0.8,1.8-1.8c0-0.6-0.3-1.2-0.8-1.5c-1.3-0.9-1.7-2.7-0.8-4c0.6-1,1.8-1.5,3-1.3c1.2,0.2,2.1,1.2,2.3,2.4
	c0.2,1.1-0.3,2.2-1.3,2.9c-0.8,0.5-1.1,1.7-0.5,2.5c0.1,0.1,0.1,0.2,0.2,0.3c0.3,0.3,0.8,0.5,1.3,0.5h0.7c1.3,0,2.5,0.7,3.1,1.8
	l1.6,2.8c0.3,0.5,0.9,0.6,1.3,0.4c0,0,0,0,0,0l1.1-0.6c0,0.3,0,0.5,0,0.8v1.6L24.7,23.6z M42.6,28.3c0,0.5-0.3,0.9-0.8,0.9
	c-0.5,0-0.9-0.3-0.9-0.8c0,0,0-0.1,0-0.1v-6.4c0-0.5-0.4-1-1-1s-1,0.4-1,1v6.4c0,0.1,0,0.1,0,0.1s0,0,0,0.1V41
	c0,0.7-0.6,1.3-1.3,1.3c-0.7,0-1.3-0.6-1.3-1.3v-9.2c0-0.5-0.4-1-1-1s-1,0.4-1,1V41c0,0.7-0.6,1.3-1.3,1.3s-1.3-0.6-1.3-1.3V28.5
	c0,0,0,0,0-0.1c0,0,0-0.1,0-0.1v-6.4c0-0.5-0.4-1-1-1s-1,0.4-1,1v6.4c0,0.5-0.4,0.8-0.9,0.8c-0.4,0-0.8-0.4-0.8-0.8v-7
	c0-2.6,2.1-4.8,4.8-4.8c1,0,1.8-0.8,1.8-1.8c0-0.6-0.3-1.2-0.8-1.5c-1.3-0.9-1.7-2.6-0.8-3.9c0.6-1,1.8-1.5,2.9-1.2
	c1.2,0.2,2.1,1.2,2.3,2.3c0.2,1.1-0.3,2.2-1.3,2.8c-0.8,0.5-1.1,1.7-0.5,2.5c0.3,0.5,0.9,0.8,1.5,0.8c2.6,0,4.8,2.1,4.8,4.8V28.3z"
	/>
</svg>
