<?xml version="1.0" encoding="utf-8"?>
<!-- Generator: Adobe Illustrator 22.1.0, SVG Export Plug-In . SVG Version: 6.00 Build 0)  -->
<svg version="1.1" id="Layer_1" xmlns="http://www.w3.org/2000/svg" xmlns:xlink="http://www.w3.org/1999/xlink" x="0px" y="0px"
	 viewBox="0 0 50 50" style="enable-background:new 0 0 50 50;" xml:space="preserve">
<path style="fill:#C9C3C1;enable-background:new    ;" d="M30.8,43.5l8.2-8.9V21.7H11v22h19.6L30.8,43.5z M37,34.8l-6.5,7v-7H37z
	 M12.4,23h25.3v10.5h-8.5v8.9H12.4V23z M18.7,26.8c0-1.4-1.1-2.6-2.6-2.6c-1.4,0-2.6,1.2-2.6,2.6s1.2,2.6,2.6,2.6
	C17.6,29.4,18.7,28.2,18.7,26.8z M14.9,26.8c0-0.7,0.5-1.2,1.2-1.2s1.2,0.5,1.2,1.2S16.8,28,16.1,28C15.5,28,14.9,27.4,14.9,26.8z
	 M24.6,10.5c0.5,0.9,2.6,5.9,2.6,6.6c0,3.9-5.2,3.9-5.2,0C22,16.4,24.1,11.2,24.6,10.5z M31.4,6.2c0.5,0.9,2.6,5.9,2.6,6.6
	c0,3.9-5.2,3.9-5.2,0C28.8,12.2,30.9,7,31.4,6.2z M17.8,6.2c0.5,0.9,2.6,5.9,2.6,6.6c0,3.9-5.2,3.9-5.2,0C15.2,12.2,17.3,7,17.8,6.2
	z"/>
</svg>
