<?xml version="1.0" encoding="utf-8"?>
<!-- Generator: Adobe Illustrator 22.1.0, SVG Export Plug-In . SVG Version: 6.00 Build 0)  -->
<svg version="1.1" id="Layer_1" xmlns="http://www.w3.org/2000/svg" xmlns:xlink="http://www.w3.org/1999/xlink" x="0px" y="0px"
	 viewBox="0 0 50 50" style="enable-background:new 0 0 50 50;" xml:space="preserve">
<style type="text/css">
	.st0{fill:#C9C3C1;}
</style>
<path class="st0" d="M13.7,29.9v9.1c0,0.4-0.1,0.7-0.3,0.9c-0.2,0.2-0.5,0.3-0.9,0.3c-0.4,0-0.7-0.1-0.9-0.3
	c-0.3-0.2-0.4-0.5-0.4-0.9v-9.1H7.8l3.6-12h-0.6c-0.4,1.4-0.7,2.4-1,3.3C9.5,22,9.3,22.9,9,23.6c-0.3,0.8-0.4,1.3-0.4,1.4
	c-0.2,0.5-0.5,0.8-1,0.8l-0.3-0.1c-0.5-0.2-0.7-0.5-0.7-1c0-0.1,0-0.2,0.1-0.3c0-0.1,0.1-0.4,0.3-0.9c0.1-0.5,0.3-1.1,0.5-1.9
	c0.2-0.7,0.5-1.6,0.7-2.4c0.3-0.9,0.5-1.7,0.8-2.5c0.2-0.6,0.5-1.2,1.1-1.7c0.6-0.5,1.2-0.7,1.8-0.7H16c0.6,0,1.3,0.2,1.8,0.7
	c0.5,0.5,0.9,1.1,1.2,1.7c0.2,0.8,0.5,1.7,0.7,2.5c0.2,0.9,0.5,1.7,0.7,2.4c0.2,0.7,0.4,1.4,0.5,1.9c0.1,0.5,0.2,0.8,0.3,0.9
	l0.1,0.3c0,0.5-0.3,0.9-0.7,1l-0.3,0.1c-0.5,0-0.9-0.2-1-0.8c0-0.2-0.2-0.7-0.4-1.4c-0.2-0.8-0.5-1.6-0.8-2.5
	c-0.3-0.9-0.6-1.9-1-3.3h-0.6l3.6,12h-3.4v9.1c0,0.4-0.1,0.7-0.4,0.9c-0.2,0.2-0.5,0.3-0.9,0.3c-0.4,0-0.6-0.1-0.9-0.3
	c-0.2-0.2-0.3-0.5-0.3-0.9v-9.1H13.7z M14,13.6c0.7,0,1.3-0.2,1.8-0.7c0.5-0.5,0.7-1.1,0.7-1.9c0-0.7-0.3-1.3-0.7-1.8
	c-0.5-0.5-1.1-0.8-1.8-0.8c-0.8,0-1.4,0.3-1.9,0.8c-0.5,0.5-0.8,1.1-0.8,1.8c0,0.8,0.3,1.4,0.8,1.9C12.6,13.3,13.3,13.6,14,13.6z
	 M32.8,14.3c-0.9,0-1.7,0.3-2.4,1c-0.7,0.7-1,1.5-1,2.4v8.2c0,0.3,0.1,0.6,0.3,0.8c0.2,0.2,0.5,0.3,0.8,0.3c0.4,0,0.6-0.1,0.8-0.3
	c0.2-0.2,0.3-0.5,0.3-0.8v-7.3h0.6v20.3c0,0.4,0.2,0.7,0.5,1c0.3,0.3,0.7,0.4,1.1,0.4c0.4,0,0.8-0.1,1.1-0.4c0.3-0.3,0.4-0.6,0.4-1
	V27h0.7v11.8c0,0.4,0.2,0.7,0.4,1c0.3,0.3,0.7,0.4,1.1,0.4c0.4,0,0.7-0.1,1-0.4c0.3-0.3,0.4-0.6,0.4-1V18.5h0.6v7.3
	c0,0.3,0.1,0.6,0.3,0.8c0.2,0.2,0.5,0.3,0.8,0.3c0.4,0,0.6-0.1,0.8-0.3c0.2-0.2,0.3-0.5,0.3-0.8v-8.2c0-0.9-0.3-1.7-1-2.4
	c-0.6-0.7-1.4-1-2.4-1H32.8z M35.8,13.6c0.7,0,1.3-0.2,1.9-0.7c0.5-0.5,0.8-1.1,0.8-1.9c0-0.7-0.3-1.3-0.8-1.8
	c-0.5-0.5-1.1-0.8-1.9-0.8c-0.7,0-1.4,0.3-1.9,0.8c-0.5,0.5-0.7,1.1-0.7,1.8c0,0.8,0.2,1.4,0.7,1.9C34.4,13.3,35,13.6,35.8,13.6z
	 M26.7,6.2h-2.6v37.5h2.6V6.2z"/>
</svg>
