<?xml version="1.0" encoding="utf-8"?>
<!-- Generator: Adobe Illustrator 22.1.0, SVG Export Plug-In . SVG Version: 6.00 Build 0)  -->
<svg version="1.1" id="Layer_1" xmlns="http://www.w3.org/2000/svg" xmlns:xlink="http://www.w3.org/1999/xlink" x="0px" y="0px"
	 viewBox="0 0 50 50" style="enable-background:new 0 0 50 50;" xml:space="preserve">
<g>
	<path style="fill:none;" d="M50,46c0,2.2-1.8,4-4,4H4c-2.2,0-4-1.8-4-4V4c0-2.2,1.8-4,4-4h42c2.2,0,4,1.8,4,4V46z"/>
</g>
<g style="enable-background:new    ;">
	<path style="opacity:0.48;fill:#C9C3C1;enable-background:new    ;" d="M4,32.6l3.3,0.8h4.1c0-1,0.3-1.9,0.9-2.6H4V32.6z"/>
	<path style="opacity:0.48;fill:#C9C3C1;enable-background:new    ;" d="M30.8,13.4H4v16.5h26.8V13.4z M18.9,28
		c-2.3,0-4.1-2-4.1-4.6s2-5.4,4.1-7.7c2.1,2.4,4.1,5.2,4.1,7.7C23,26,21.2,28,18.9,28z"/>
	<path style="opacity:0.48;fill:#C9C3C1;enable-background:new    ;" d="M41.9,24.4l-2.3-7v-1.8h-7.3v15.2h-13
		c0.6,0.7,0.9,1.6,0.9,2.6h13.6c0-2.4,2-4.4,4.4-4.4c1.7,0,3.2,1,3.9,2.4c0.3,0.5,0.4,1.1,0.5,1.7c0,0.1,0,0.2,0,0.3H46v-7.3
		L41.9,24.4z M34.3,24.4v-5.2h4.1l1.7,5.2C40.1,24.4,34.3,24.4,34.3,24.4z"/>
	<path style="opacity:0.48;fill:#C9C3C1;enable-background:new    ;" d="M15.7,30.2c-1.8,0-3.2,1.4-3.2,3.2c0,1.8,1.4,3.2,3.2,3.2
		s3.2-1.4,3.2-3.2C18.9,31.7,17.5,30.2,15.7,30.2z M15.7,35.2c-1,0-1.8-0.8-1.8-1.8s0.8-1.8,1.8-1.8s1.7,0.8,1.7,1.8
		C17.5,34.4,16.7,35.2,15.7,35.2z"/>
	<path style="opacity:0.48;fill:#C9C3C1;enable-background:new    ;" d="M38.1,30.2c-1.8,0-3.2,1.4-3.2,3.2c0,1.8,1.4,3.2,3.2,3.2
		s3.2-1.4,3.2-3.2C41.3,31.7,39.9,30.2,38.1,30.2z M38.1,35.2c-1,0-1.8-0.8-1.8-1.8s0.8-1.8,1.8-1.8s1.8,0.8,1.8,1.8
		C39.9,34.4,39.1,35.2,38.1,35.2z"/>
</g>
</svg>
