<?xml version="1.0" encoding="utf-8"?>
<!-- Generator: Adobe Illustrator 22.1.0, SVG Export Plug-In . SVG Version: 6.00 Build 0)  -->
<svg version="1.1" id="Layer_1" xmlns="http://www.w3.org/2000/svg" xmlns:xlink="http://www.w3.org/1999/xlink" x="0px" y="0px"
	 viewBox="0 0 50 50" style="enable-background:new 0 0 50 50;" xml:space="preserve">
<g transform="translate(0,-952.36218)" style="enable-background:new    ;">
	<path style="fill:#C9C3C1;" d="M25,959.2c6.3,7,12.1,15.4,12.1,22.8c0,7.5-5.4,13.5-12.1,13.5s-12.1-6-12.1-13.5
		C12.9,974.6,18.7,966.2,25,959.2L25,959.2z M32.8,980.5c-0.6,0-1.1,0.5-1.1,1.1v0.1c0.2,2.3-1.2,5.5-2.8,6.7
		c-0.5,0.3-0.7,1-0.4,1.5s1,0.7,1.5,0.4c0.1,0,0.1-0.1,0.2-0.1c2.5-1.8,4-5.4,3.7-8.6C33.9,981,33.4,980.5,32.8,980.5L32.8,980.5z"
		/>
</g>
</svg>
