<?xml version="1.0" encoding="utf-8"?>
<!-- Generator: Adobe Illustrator 22.1.0, SVG Export Plug-In . SVG Version: 6.00 Build 0)  -->
<svg version="1.1" id="Layer_1" xmlns="http://www.w3.org/2000/svg" xmlns:xlink="http://www.w3.org/1999/xlink" x="0px" y="0px"
	 viewBox="0 0 50 50" style="enable-background:new 0 0 50 50;" xml:space="preserve">
<style type="text/css">
	.st0{fill:none;}
	.st1{opacity:0.48;}
</style>
<g>
	<path class="st0" d="M50,46c0,2.2-1.8,4-4,4H4c-2.2,0-4-1.8-4-4V4c0-2.2,1.8-4,4-4h42c2.2,0,4,1.8,4,4V46z"/>
</g>
<path class="st1" d="M38.3,43l-6.4-13.3L25.6,43l-4.7,0l8.7-18.2L21.1,7.1l4.7-0.1L32,19.9L38.1,7l4.6,0.1l-8.4,17.6L43,43L38.3,43z
	 M12.1,13.1c1.7,0,3-1.4,3-3.1c0-1.7-1.4-3.1-3-3.1C10.4,7,9,8.4,9,10.1C9,11.8,10.4,13.1,12.1,13.1z M18.3,26.6
	c0.1,0.6-0.3,1.1-0.9,1.1c0,0-0.1,0-0.1,0c-0.5,0-1-0.4-1-0.9l-0.8-8.3L15.2,25l0.6,16.7c0,0.7-0.5,1.2-1.1,1.3c0,0-0.1,0-0.1,0
	c-0.6,0-1.2-0.5-1.2-1.1l-1.4-13.8l-1.4,13.8c0,0.6-0.6,1.1-1.2,1.1c0,0-0.1,0-0.1,0c-0.7,0-1.2-0.6-1.1-1.3L8.9,25l-0.2-6.5
	l-0.8,8.3c-0.1,0.5-0.5,0.9-1,0.9c0,0-0.1,0-0.1,0c-0.6-0.1-1-0.6-0.9-1.1c0,0,0.8-9.6,1.2-10.3c0.7-1.5,1.9-2.5,4.8-2.5h0.3h0.3
	c2.8,0,4,0.9,4.8,2.5C17.5,17.1,18.3,26.6,18.3,26.6z"/>
</svg>
