<?xml version="1.0" encoding="utf-8"?>
<!-- Generator: Adobe Illustrator 22.1.0, SVG Export Plug-In . SVG Version: 6.00 Build 0)  -->
<svg version="1.1" id="Layer_1" xmlns="http://www.w3.org/2000/svg" xmlns:xlink="http://www.w3.org/1999/xlink" x="0px" y="0px"
	 viewBox="0 0 60 60" style="enable-background:new 0 0 60 60;" xml:space="preserve">
<style type="text/css">
	.st0{filter:url(#Adobe_OpacityMaskFilter);}
	.st1{fill:#FFFFFF;}
	.st2{mask:url(#mask-2_1_);}
</style>
<g id="Page-1_1_">
	<g id="Emergencies-Page" transform="translate(-100 -340)">
		<g id="Page-1" transform="translate(100 340)">
			<defs>
				<filter id="Adobe_OpacityMaskFilter" filterUnits="userSpaceOnUse" x="6" y="5.5" width="47.7" height="49">
					<feColorMatrix  type="matrix" values="1 0 0 0 0  0 1 0 0 0  0 0 1 0 0  0 0 0 1 0"/>
				</filter>
			</defs>
			<mask maskUnits="userSpaceOnUse" x="6" y="5.5" width="47.7" height="49" id="mask-2_1_">
				<g class="st0">
					<path id="path-1_1_" class="st1" d="M29.9,54.5H6v-49h47.7v49H29.9z"/>
				</g>
			</mask>
			<path id="Fill-1" class="st2" d="M24.6,52.9h10.5V40.6c0-0.3,0.1-0.5,0.4-0.7c0.2-0.1,0.5-0.1,0.8,0l10.4,6.1l5.2-9.3l-10.4-6.1
				c-0.2-0.1-0.4-0.4-0.4-0.7c0-0.3,0.1-0.5,0.4-0.7l10.4-6.1l-5.2-9.3L36.3,20c-0.2,0.1-0.5,0.1-0.8,0c-0.2-0.1-0.4-0.4-0.4-0.7
				V7.1H24.6v12.3c0,0.3-0.1,0.5-0.4,0.7c-0.2,0.1-0.5,0.1-0.8,0l-10.4-6.1l-5.2,9.3l10.4,6.1c0.4,0.2,0.5,0.7,0.3,1.1
				c-0.1,0.1-0.2,0.2-0.3,0.3L7.8,36.8l5.2,9.3L23.5,40c0.2-0.1,0.5-0.1,0.8,0c0.2,0.1,0.4,0.4,0.4,0.7L24.6,52.9L24.6,52.9z
				 M35.9,54.5h-12c-0.4,0-0.8-0.4-0.8-0.8c0,0,0,0,0,0V42l-9.9,5.9c-0.4,0.2-0.8,0.1-1-0.3c0,0,0,0,0,0l-6-10.6
				c-0.2-0.4-0.1-0.8,0.3-1.1l9.9-5.9l-9.9-5.9c-0.4-0.2-0.5-0.7-0.3-1.1l6-10.6c0.2-0.4,0.7-0.5,1-0.3c0,0,0,0,0,0l9.9,5.9V6.3
				c0-0.4,0.3-0.8,0.8-0.8h12c0.4,0,0.8,0.3,0.8,0.8V18l9.9-5.9c0.4-0.2,0.8-0.1,1,0.3c0,0,0,0,0,0l6,10.6c0.2,0.4,0.1,0.8-0.3,1.1
				L43.4,30l9.9,5.9c0.4,0.2,0.5,0.7,0.3,1.1l-6,10.6c-0.2,0.4-0.7,0.5-1,0.3c0,0,0,0,0,0L36.6,42v11.7
				C36.6,54.1,36.3,54.5,35.9,54.5C35.9,54.5,35.9,54.5,35.9,54.5L35.9,54.5z"/>
		</g>
	</g>
</g>
</svg>
