<?xml version="1.0" encoding="utf-8"?>
<!-- Generator: Adobe Illustrator 22.1.0, SVG Export Plug-In . SVG Version: 6.00 Build 0)  -->
<svg version="1.1" id="Layer_1" xmlns="http://www.w3.org/2000/svg" xmlns:xlink="http://www.w3.org/1999/xlink" x="0px" y="0px"
	 viewBox="0 0 50 50" style="enable-background:new 0 0 50 50;" xml:space="preserve">
<style type="text/css">
	.st0{fill:#FFFFFF;}
	.st1{fill:#640D0D;}
</style>
<circle class="st0" cx="25" cy="25" r="25"/>
<path class="st1" d="M38.5,26.3c-0.6,0-1.1,0.3-1.4,0.8l-2.3,4.3l-2.8-8.3c-0.2-0.6-0.8-1.1-1.5-1.1c-0.7,0-1.3,0.4-1.5,1L27,27.6
	L23.9,9.3C23.8,8.5,23.1,8,22.3,8c-0.8,0-1.4,0.5-1.5,1.3l-2.7,21.3l-2.2-11.4c-0.1-0.7-0.7-1.2-1.4-1.3c-0.7-0.1-1.3,0.3-1.6,0.9
	l-3.6,7.5H3.7v3.2h6.6c0.6,0,1.2-0.4,1.4-0.9l1.9-4l3.1,16.2c0.1,0.8,0.8,1.3,1.6,1.3c0,0,0,0,0,0c0.8,0,1.4-0.6,1.5-1.4l2.7-20.9
	l2.2,13.8c0.1,0.7,0.7,1.2,1.4,1.3c0.7,0.1,1.4-0.3,1.6-1l2.4-5.7l2.7,7.8c0.2,0.6,0.8,1,1.4,1.1c0.6,0,1.2-0.3,1.5-0.8l3.6-6.7h6.8
	v-3.2H38.5z"/>
<path class="st1" d="M25,50C11.2,50,0,38.8,0,25C0,11.2,11.2,0,25,0c13.8,0,25,11.2,25,25C50,38.8,38.8,50,25,50z M25,1.9
	C12.3,1.9,1.9,12.3,1.9,25S12.3,48.1,25,48.1S48.1,37.7,48.1,25S37.7,1.9,25,1.9z"/>
</svg>
