<?xml version="1.0" encoding="utf-8"?>
<!-- Generator: Adobe Illustrator 22.1.0, SVG Export Plug-In . SVG Version: 6.00 Build 0)  -->
<svg version="1.1" id="Layer_1" xmlns="http://www.w3.org/2000/svg" xmlns:xlink="http://www.w3.org/1999/xlink" x="0px" y="0px"
	 viewBox="0 0 50 50" style="enable-background:new 0 0 50 50;" xml:space="preserve">
<style type="text/css">
	.st0{fill:none;}
	.st1{opacity:0.48;enable-background:new    ;}
</style>
<g>
	<path class="st0" d="M50,46c0,2.2-1.8,4-4,4H4c-2.2,0-4-1.8-4-4V4c0-2.2,1.8-4,4-4h42c2.2,0,4,1.8,4,4V46z"/>
</g>
<path class="st1" d="M16.1,11.6c0,1.5-1.2,2.7-2.8,2.7c-1.5,0-2.8-1.2-2.8-2.7c0-1.5,1.2-2.7,2.8-2.7C14.8,8.8,16.1,10,16.1,11.6z
	 M13.6,30.4l0.6,10.1c0,0.4,0.3,0.6,0.6,0.6c0.4,0,0.6-0.3,0.6-0.6L16,30.4h1.8L16,19l3.7,7.4c0.1,0.3,0.5,0.5,0.8,0.3
	c0.3-0.1,0.5-0.5,0.3-0.8c0,0-2.7-7.4-3.4-8.8c-0.7-1.4-1.3-2.2-3.9-2.2h-0.5c-2.6,0-3.2,0.8-3.9,2.2C8.5,18.6,5.7,26,5.7,26
	c-0.1,0.3,0,0.7,0.3,0.8c0.3,0.1,0.7,0,0.8-0.3l3.7-7.4L8.8,30.4h1.8l0.6,10.1c0,0.4,0.3,0.6,0.6,0.6c0.4,0,0.7-0.3,0.7-0.6L13,30.4
	H13.6z M35.5,8.8c-1.5,0-2.8,1.2-2.8,2.7c0,1.5,1.2,2.8,2.8,2.8c1.5,0,2.7-1.2,2.7-2.8C38.3,10,37.1,8.8,35.5,8.8z M38.4,25l0.2-6
	l3.4,7.4c0.1,0.3,0.5,0.5,0.8,0.3c0.3-0.1,0.5-0.5,0.3-0.8c0,0-2.4-7.4-3-8.8c-0.7-1.4-1.7-2.2-4.3-2.2h-0.5c-2.6,0-3.6,0.8-4.3,2.2
	c-0.7,1.4-3,8.8-3,8.8c-0.1,0.3,0,0.7,0.3,0.8c0.3,0.1,0.7,0,0.8-0.3l3.4-7.4l0.2,6l-0.5,15c0,0.6,0.4,1.1,1,1.2c0,0,0.1,0,0.1,0
	c0.6,0,1-0.4,1.1-1l1.2-12.4l1.2,12.4c0,0.6,0.5,1,1.1,1c0,0,0.1,0,0.1,0c0.6,0,1-0.6,1-1.2L38.4,25L38.4,25z M24.4,25.5
	c-0.9,0-1.7,0.8-1.7,1.7c0,0.9,0.8,1.7,1.7,1.7c0.9,0,1.7-0.8,1.7-1.7C26.1,26.3,25.4,25.5,24.4,25.5z M24.4,35.5
	c0,0,0.8,5.3,0.8,5.3c0.1,0.3,0.3,0.4,0.6,0.4c0.3,0,0.6-0.2,0.6-0.5c0,0,0-0.3,0-0.4l-0.3-6.5l0.1-2.2c0.1-0.8,0.1-0.5,1-1
	c0.9-0.5,2.4-2.8,2.4-3c0.1-0.1,0.2-0.3,0.2-0.4c0-0.2-0.1-0.5-0.3-0.5c-0.2,0-0.3,0.1-0.4,0.2C29,27,27.3,29.3,26,29.5
	c-0.3,0-0.6-0.2-1.4-0.2h-0.3c-0.8,0-1.1,0.2-1.4,0.2c-1.3-0.2-3-2.5-3.1-2.6c-0.1-0.1-0.3-0.2-0.4-0.2c-0.2,0-0.4,0.3-0.3,0.5
	c0,0.1,0.2,0.3,0.2,0.4c0.1,0.1,1.6,2.4,2.4,3c0.9,0.5,0.9,0.3,1,1l0.1,2.2l-0.3,6.5c0,0.1,0,0.4,0,0.4c0.1,0.3,0.3,0.5,0.6,0.5
	c0.3,0,0.5-0.2,0.6-0.4C23.7,40.7,24.4,35.5,24.4,35.5"/>
</svg>
