<?xml version="1.0" encoding="utf-8"?>
<!-- Generator: Adobe Illustrator 22.1.0, SVG Export Plug-In . SVG Version: 6.00 Build 0)  -->
<svg version="1.1" id="Layer_1" xmlns="http://www.w3.org/2000/svg" xmlns:xlink="http://www.w3.org/1999/xlink" x="0px" y="0px"
	 viewBox="0 0 60 60" style="enable-background:new 0 0 60 60;" xml:space="preserve">
<g id="Page-1">
	<g id="Emergency-Page" transform="translate(-476 -380)">
		<g id="noun_1093532_cc" transform="translate(476 380)">
			<path id="Shape" d="M45.4,26c0.2,0,0.3-0.1,0.4-0.2l8.5-9.1c0.2-0.2,0.2-0.5,0.2-0.7c-0.1-0.3-0.3-0.4-0.5-0.4H42.6
				c0.2-0.2,0.2-0.5,0.1-0.7c-0.1-0.3-0.3-0.4-0.5-0.4H27c-0.2,0-0.3,0.1-0.4,0.2l-0.9,1h-11c-0.2,0-0.3,0.1-0.4,0.2L5.7,25
				c-0.2,0.2-0.2,0.5-0.2,0.7c0.1,0.3,0.3,0.4,0.5,0.4h11.1v5.2h-11c-0.3,0-0.6,0.3-0.6,0.7c0,0.4,0.2,0.7,0.6,0.7h11.1v5.2H6.1
				c-0.3,0-0.6,0.3-0.6,0.7c0,0.4,0.2,0.7,0.6,0.7h11.1v5.2H6.1c-0.3,0-0.6,0.3-0.6,0.7c0,0.4,0.2,0.7,0.6,0.7h39.3
				c0.1,0,0.2-0.1,0.3-0.1l8.5-6.5c0.3-0.2,0.3-0.6,0.2-0.9c-0.2-0.3-0.5-0.4-0.8-0.2l-8.4,6.3H33.6V39h11.8c0.1,0,0.2-0.1,0.3-0.1
				l8.5-7.1c0.2-0.2,0.3-0.6,0.1-0.9c-0.2-0.3-0.5-0.3-0.8-0.1l-8.4,7.1H33.6v-5.2h11.8c0.1,0,0.2-0.1,0.3-0.1l8.5-7.8
				c0.2-0.2,0.3-0.7,0.1-0.9c-0.2-0.3-0.6-0.3-0.8-0.1l-8.4,7.7H33.6v-5.2L45.4,26L45.4,26z M41.7,17h10.8l-7.3,7.7h-11l7.3-7.9
				C41.5,16.9,41.6,17,41.7,17z M14.9,17h9.6l-7.1,7.5c-0.1,0.1-0.1,0.1-0.1,0.2H7.6C7.6,24.7,14.9,17,14.9,17z M18.3,44.2V25.3
				l8.9-9.5h13.5l-8.1,8.7c-0.1,0.1-0.2,0.3-0.2,0.5v19.2L18.3,44.2L18.3,44.2L18.3,44.2z"/>
		</g>
	</g>
</g>
</svg>
