<?xml version="1.0" encoding="utf-8"?>
<!-- Generator: Adobe Illustrator 22.1.0, SVG Export Plug-In . SVG Version: 6.00 Build 0)  -->
<svg version="1.1" id="Layer_1" xmlns="http://www.w3.org/2000/svg" xmlns:xlink="http://www.w3.org/1999/xlink" x="0px" y="0px"
	 viewBox="0 0 50 50" style="enable-background:new 0 0 50 50;" xml:space="preserve">
<g>
	<path style="fill:#FFFFFF;" d="M50,46c0,2.2-1.8,4-4,4H4c-2.2,0-4-1.8-4-4V4c0-2.2,1.8-4,4-4h42c2.2,0,4,1.8,4,4V46z"/>
</g>
<path style="fill:#C9C3C1;enable-background:new    ;" d="M42.2,18.7L25,10.2L7.8,18.7l-1.6-3.1L25,6.3l0,0l0,0l0,0l0,0l18.7,9.3
	L42.2,18.7z M20.1,43.7V32.8h9.9v10.9H35v-25h-5.1v9.8h-9.9v-9.8H15v25H20.1z"/>
<g>
	<g>
		<path style="fill:#FFFFFF;" d="M13.8,24.5c-3.9,0-7-3.2-7-7v-3.7c0-3.9,3.2-7,7-7h3.8c3.9,0,7,3.2,7,7v3.7c0,3.9-3.2,7-7,7H13.8z"
			/>
		<path style="fill:#C9C3C1;" d="M17.5,7.2c3.6,0,6.6,2.9,6.6,6.6v3.7c0,3.6-2.9,6.6-6.6,6.6h-3.8c-3.6,0-6.6-2.9-6.6-6.6v-3.7
			c0-3.6,2.9-6.6,6.6-6.6H17.5 M17.5,6.3h-3.8c-4.1,0-7.5,3.4-7.5,7.5v3.7c0,4.1,3.4,7.5,7.5,7.5h3.8c4.1,0,7.5-3.4,7.5-7.5v-3.7
			C25,9.6,21.6,6.3,17.5,6.3L17.5,6.3z"/>
	</g>
	<g>
		<line style="fill:none;stroke:#C9C3C1;stroke-miterlimit:10;" x1="20.3" y1="11" x2="11" y2="20.3"/>
		<line style="fill:none;stroke:#C9C3C1;stroke-miterlimit:10;" x1="11" y1="11" x2="20.3" y2="20.3"/>
	</g>
</g>
</svg>
