<?xml version="1.0" encoding="utf-8"?>
<!-- Generator: Adobe Illustrator 22.1.0, SVG Export Plug-In . SVG Version: 6.00 Build 0)  -->
<svg version="1.1" id="Layer_1" xmlns="http://www.w3.org/2000/svg" xmlns:xlink="http://www.w3.org/1999/xlink" x="0px" y="0px"
	 viewBox="0 0 50 50" style="enable-background:new 0 0 50 50;" xml:space="preserve">
<style type="text/css">
	.st0{opacity:0.48;enable-background:new    ;}
</style>
<path class="st0" d="M19.5,22.5c0.9,0,1.8,0,2.6,0.1l-3.5-4.8c-0.5-0.3-2.4-1.5-3.9-2l0.1-0.3c0,0,3,0.5,4.4,1.7l3.9,5.4l0.1,0.1
	c0.4,0,0.8,0.1,1.2,0.1l-3.1-4.3l1.2-3.4c-0.1-1.5-2.6-6.2-2.6-6.2L20,8.6c1.9,1.6,3.1,6.5,3.1,6.5l-1.1,3.2l2.4,3.3
	c-0.1-0.6-0.1-1.3-0.1-2c0.1-2.1,0.2-3.7,0.8-3.8c0.7,0.2,0.8,1.8,0.8,3.8c0,0.7,0,1.4-0.1,2l2.4-3.3L27.3,15
	c0.2-0.5,1.5-5.1,3.1-6.4l0.2,0.2c0,0-2.4,4.7-2.6,6.2l1.2,3.5l-3.1,4.3c0.3,0,0.7-0.1,1.2-0.1l0.1-0.1l3.9-5.4
	c1.4-1.2,4.3-1.7,4.4-1.7l0.1,0.3c-1.5,0.5-3.3,1.7-3.9,2l-3.5,4.8c0.8,0,1.7-0.1,2.6-0.1c3.1,0,6.2,0.3,6.3,1.7
	c0,0.1,0,0.3-0.1,0.4c-0.4,0.7-1.4,0.9-2.7,1c-2.2,0-5.3-0.7-7.3-1.2l-0.6,0.6c0.7,0.2,1.9,0.7,2.6,1.5l0.1,0.1l0.4,3l2.1,2.5
	l-0.2,0.2L29,29.8l-0.4-3c-0.6-0.7-1.8-1.1-2.4-1.3c-0.1,0.2-0.2,0.4-0.4,0.5c0,0,0,0.1,0,0.1l0,0c0.4,0,0.8,0.2,0.8,0.7
	c0,0,0,0.1,0,0.1c-0.1,0.6-0.7,0.9-1,1.1l-0.2,3.5l-0.3,0L24.8,28c-0.4-0.2-0.9-0.5-0.9-1.1c0,0,0-0.1,0-0.1c0-0.5,0.5-0.7,0.8-0.7
	h0c0,0,0-0.1,0-0.1c-0.2-0.1-0.3-0.3-0.4-0.5c-0.6,0.2-1.8,0.6-2.4,1.2l-0.5,3.2l-2.5,2.3L18.7,32l2-2.5l0.4-3.1l0-0.1
	c0.8-0.8,1.9-1.3,2.6-1.5l-0.6-0.6c-2,0.5-5.1,1.2-7.3,1.2c-1.3,0-2.3-0.2-2.7-1c-0.1-0.1-0.1-0.3-0.1-0.4
	C13.3,22.7,16.4,22.5,19.5,22.5z M47.2,34.6L44.8,37l1.7,1.7l0.2-0.2c0.1-0.1,0.3-0.1,0.4,0c0.1,0.1,0.1,0.3,0,0.4L47,39.1l0.2,0.2
	c0.1,0.1,0.1,0.3,0,0.4c-0.1,0.1-0.1,0.1-0.2,0.1c-0.1,0-0.1,0-0.2-0.1l-0.2-0.2l-1.7,1.7l1.7,1.7l0.2-0.2c0.1-0.1,0.3-0.1,0.4,0
	c0.1,0.1,0.1,0.3,0,0.4L47,43.4l0.2,0.2c0.1,0.1,0.1,0.3,0,0.4c-0.1,0.1-0.1,0.1-0.2,0.1c-0.1,0-0.1,0-0.2-0.1l-0.2-0.2l-1.8,1.8
	c0,0,0,0,0,0.1c0,0,0,0,0,0c0,0.1,0,0.1-0.1,0.2c0,0,0,0,0,0c0,0-0.1,0.1-0.2,0.1h-0.2c-0.1,0-0.1,0-0.2-0.1c0,0,0-0.1-0.1-0.1
	c0,0,0,0,0-0.1c0,0,0,0,0-0.1v0l-1.8-1.8l-1.8,1.8c0,0,0,0,0,0.1c0,0,0,0,0,0c0,0.1,0,0.1-0.1,0.2c0,0,0,0,0,0c0,0-0.1,0.1-0.2,0.1
	h-0.2c-0.1,0-0.1,0-0.2-0.1c0,0,0-0.1-0.1-0.1c0,0,0,0,0-0.1c0,0,0,0,0-0.1v0L38,43.8l-1.8,1.8c0,0,0,0,0,0.1c0,0.2-0.1,0.3-0.3,0.3
	h-0.2c-0.2,0-0.3-0.1-0.3-0.3c0,0,0,0,0-0.1l-1.8-1.8L32,45.5v0c0,0,0,0,0,0.1c0,0,0,0,0,0.1c0,0,0,0.1-0.1,0.1
	c-0.1,0.1-0.1,0.1-0.2,0.1h-0.2c-0.1,0-0.1,0-0.2-0.1c0,0,0,0,0,0c0,0-0.1-0.1-0.1-0.2c0,0,0,0,0,0c0,0,0,0,0-0.1l-1.8-1.8l-1.8,1.8
	c0,0,0,0,0,0.1c0,0,0,0,0,0c0,0.1,0,0.1-0.1,0.2c0,0,0,0,0,0c0,0-0.1,0.1-0.2,0.1h-0.2c-0.1,0-0.1,0-0.2-0.1c0,0,0-0.1-0.1-0.1
	c0,0,0,0,0-0.1c0,0,0,0,0-0.1v0l-1.8-1.8l-1.8,1.8c0,0,0,0,0,0.1v0c0,0,0,0.1,0,0.1c0,0,0,0.1,0,0.1c-0.1,0.1-0.1,0.1-0.2,0.1H23
	c-0.1,0-0.1,0-0.2-0.1c0,0,0-0.1-0.1-0.1c0,0,0,0,0-0.1c0,0,0,0,0-0.1l0,0L21,43.8l-1.8,1.8c0,0,0,0,0,0.1c0,0,0,0,0,0
	c0,0.1,0,0.1-0.1,0.2c0,0,0,0,0,0c-0.1,0-0.1,0.1-0.2,0.1h-0.2c-0.1,0-0.1,0-0.2-0.1c0,0,0-0.1-0.1-0.1c0,0,0,0,0-0.1c0,0,0,0,0-0.1
	v0l-1.8-1.8l-1.8,1.8v0c0,0,0,0,0,0.1c0,0,0,0,0,0.1c0,0,0,0.1-0.1,0.1c-0.1,0.1-0.1,0.1-0.2,0.1h-0.2c-0.1,0-0.1,0-0.2-0.1
	c0,0,0-0.1-0.1-0.1c0,0,0,0,0-0.1c0,0,0,0,0-0.1l0,0l-1.8-1.8l-1.8,1.8c0,0,0,0,0,0.1c0,0,0,0,0,0c0,0.1,0,0.1-0.1,0.2c0,0,0,0,0,0
	c0,0-0.1,0.1-0.2,0.1h-0.2c-0.1,0-0.1,0-0.2-0.1c0,0,0-0.1-0.1-0.1c0,0,0,0,0-0.1c0,0,0,0,0-0.1v0l-1.8-1.8l-1.8,1.8c0,0,0,0,0,0.1
	c0,0,0,0,0,0c0,0.1,0,0.1-0.1,0.2c0,0,0,0,0,0c0,0-0.1,0.1-0.2,0.1H5.9c-0.1,0-0.1,0-0.2-0.1c0,0,0-0.1-0.1-0.1c0,0,0,0,0-0.1
	c0,0,0,0,0-0.1v0l-1.8-1.8L3.7,44c-0.1,0.1-0.1,0.1-0.2,0.1c-0.1,0-0.1,0-0.2-0.1c-0.1-0.1-0.1-0.3,0-0.4l0.2-0.2l-0.2-0.2
	c-0.1-0.1-0.1-0.3,0-0.4c0.1-0.1,0.3-0.1,0.4,0L3.9,43l1.8-1.7l-1.8-1.7l-0.2,0.2c-0.1,0.1-0.1,0.1-0.2,0.1c-0.1,0-0.1,0-0.2-0.1
	c-0.1-0.1-0.1-0.3,0-0.4l0.2-0.2l-0.2-0.2c-0.1-0.1-0.1-0.3,0-0.4c0.1-0.1,0.3-0.1,0.4,0l0.2,0.2L5.6,37l-2.4-2.4c0,0,0-0.1,0-0.1
	c-0.3-0.1-0.5-0.3-0.5-0.6c0-0.4,0.3-0.7,0.7-0.7H47c0.4,0,0.7,0.3,0.7,0.7C47.8,34.2,47.5,34.4,47.2,34.6
	C47.2,34.5,47.2,34.6,47.2,34.6z M8.8,34.6l-0.2,0.2l1.7,1.7l1.7-1.7l-0.2-0.2H8.8z M13.1,34.6l-0.2,0.2l1.7,1.7l1.7-1.7l-0.2-0.2
	H13.1z M17.3,34.6l-0.2,0.2l1.7,1.7l1.7-1.7l-0.2-0.2H17.3z M21.6,34.6l-0.2,0.2l1.7,1.7l1.7-1.7l-0.2-0.2H21.6z M25.9,34.6
	l-0.2,0.2l1.7,1.7l1.7-1.7l-0.2-0.2H25.9z M30.1,34.6l-0.2,0.2l1.8,1.7l1.8-1.7l-0.2-0.2H30.1z M34.4,34.6l-0.2,0.2l1.7,1.7l1.7-1.7
	l-0.2-0.2H34.4z M8.2,35.2L6.4,37l1.7,1.7L9.9,37L8.2,35.2z M8.6,39.1l1.7,1.7l1.7-1.7l-1.7-1.7L8.6,39.1z M12.4,38.7l1.7-1.7
	l-1.7-1.7L10.7,37L12.4,38.7z M12.8,39.1l1.7,1.7l1.7-1.7l-1.8-1.7L12.8,39.1z M16.7,38.7l1.7-1.7l-1.7-1.7L15,37L16.7,38.7z
	 M17.1,39.1l1.7,1.7l1.7-1.7l-1.7-1.7L17.1,39.1z M21,38.7l1.7-1.7L21,35.2L19.2,37L21,38.7z M21.4,39.1l1.7,1.7l1.7-1.7l-1.7-1.7
	L21.4,39.1z M25.2,38.7L27,37l-1.7-1.7L23.5,37L25.2,38.7z M25.6,39.1l1.7,1.7l1.7-1.7l-1.7-1.7L25.6,39.1z M29.5,38.7l1.8-1.7
	l-1.8-1.7L27.8,37L29.5,38.7z M29.9,39.1l1.7,1.7l1.7-1.7l-1.7-1.7L29.9,39.1z M33.8,38.7l1.7-1.7l-1.7-1.7L32,37L33.8,38.7z
	 M34.2,39.1l1.7,1.7l1.7-1.7l-1.7-1.7L34.2,39.1z M38,38.7l1.7-1.7L38,35.2L36.3,37L38,38.7z M38.4,39.1l1.7,1.7l1.7-1.7l-1.7-1.7
	L38.4,39.1z M42.3,38.7l1.8-1.7l-1.8-1.7L40.6,37L42.3,38.7z M41.7,34.6h-3l-0.2,0.2l1.7,1.7l1.7-1.7L41.7,34.6z M6,36.6l1.7-1.7
	l-0.2-0.2H4L6,36.6z M6,40.9l1.7-1.7L6,37.4l-1.7,1.7L6,40.9z M7.8,43.4L6,41.6l-1.7,1.7L6,45.1L7.8,43.4z M8.2,43l1.7-1.7l-1.7-1.7
	l-1.7,1.7L8.2,43z M12,43.4l-1.7-1.7l-1.7,1.7l1.7,1.7L12,43.4z M12.4,43l1.7-1.7l-1.7-1.7l-1.7,1.7L12.4,43z M16.3,43.4l-1.7-1.7
	l-1.7,1.7l1.7,1.7L16.3,43.4z M18.4,41.2l-1.7-1.7L15,41.2l1.7,1.7L18.4,41.2z M20.6,43.4l-1.7-1.7l-1.7,1.7l1.7,1.7L20.6,43.4z
	 M21,43l1.7-1.7L21,39.5l-1.8,1.7L21,43z M24.8,43.4l-1.7-1.7l-1.7,1.7l1.7,1.7L24.8,43.4z M25.2,43l1.7-1.7l-1.7-1.7l-1.7,1.7
	L25.2,43z M29.1,43.4l-1.7-1.7l-1.7,1.7l1.7,1.7L29.1,43.4z M29.5,43l1.7-1.7l-1.7-1.7l-1.7,1.7L29.5,43z M33.4,43.4l-1.7-1.7
	l-1.7,1.7l1.7,1.8L33.4,43.4z M33.8,43l1.7-1.7l-1.7-1.7L32,41.2L33.8,43z M37.6,43.4l-1.7-1.7l-1.7,1.7l1.7,1.7L37.6,43.4z M38,43
	l1.7-1.7L38,39.5l-1.7,1.7L38,43z M41.9,43.4l-1.7-1.7l-1.7,1.7l1.7,1.7L41.9,43.4z M42.3,43l1.7-1.7l-1.7-1.7l-1.7,1.7L42.3,43z
	 M44.4,41.6l-1.8,1.7l1.8,1.7l1.7-1.7L44.4,41.6z M44.4,37.4l-1.8,1.7l1.8,1.7l1.7-1.7L44.4,37.4z M46.4,34.6h-3.5l-0.2,0.2l1.8,1.7
	L46.4,34.6z"/>
</svg>
